<?xml version="1.0" encoding="UTF-8"?>
<!--Generator: Apple Native CoreSVG 341-->
<!DOCTYPE svg
PUBLIC "-//W3C//DTD SVG 1.1//EN"
       "http://www.w3.org/Graphics/SVG/1.1/DTD/svg11.dtd">
<svg version="1.1" xmlns="http://www.w3.org/2000/svg" xmlns:xlink="http://www.w3.org/1999/xlink" viewBox="0 0 44.0253 34.5451">
 <g>
  <rect height="34.5451" opacity="0" width="44.0253" x="0" y="0"/>
  <path d="M10.7745 0C6.58037 0 2.19961 1.91572 0.288278 5.1375C0.0383779 5.58281 0 5.84999 0 6.59589L0 32.9648C0 33.9281 0.5915 34.5064 1.58436 34.5064C2.13309 34.5064 2.54149 34.323 3.02986 33.9682C5.32205 32.0226 8.43162 31.0406 11.5292 31.0406C14.5517 31.0406 17.2421 32.1466 19.1619 33.7737C19.3881 33.9653 19.6488 34.0585 19.875 34.0585C20.2995 34.0585 20.6455 33.747 20.6455 33.2666L20.6455 5.38212C20.6455 4.87763 20.591 4.72353 20.2409 4.23779C18.3217 1.56943 14.707 0 10.7745 0ZM32.8966 0C28.952 0 25.3374 1.56943 23.4181 4.23779C23.0801 4.72353 23.0256 4.87763 23.0256 5.38212L23.0256 33.2666C23.0256 33.747 23.3595 34.0585 23.7867 34.0585C24.0129 34.0585 24.271 33.9653 24.4971 33.7737C26.417 32.1466 29.1099 31.0406 32.1299 31.0406C35.2394 31.0406 38.3396 32.0226 40.6412 33.9682C41.1176 34.323 41.526 34.5064 42.0747 34.5064C43.0675 34.5064 43.659 33.9281 43.659 32.9648L43.659 6.59589C43.659 5.84999 43.6233 5.56816 43.3708 5.1375C41.4594 1.91572 37.0907 0 32.8966 0Z" fill="white" fill-opacity="0.85"/>
 </g>
</svg>
