<?xml version="1.0" encoding="UTF-8"?>
<!--Generator: Apple Native CoreSVG 341-->
<!DOCTYPE svg
PUBLIC "-//W3C//DTD SVG 1.1//EN"
       "http://www.w3.org/Graphics/SVG/1.1/DTD/svg11.dtd">
<svg version="1.1" xmlns="http://www.w3.org/2000/svg" xmlns:xlink="http://www.w3.org/1999/xlink" viewBox="0 0 39.0079 38.6683">
 <g>
  <rect height="38.6683" opacity="0" width="39.0079" x="0" y="0"/>
  <path d="M10.3151 35.4003L20.6027 29.4571C22.5583 28.3128 24.4392 27.0697 26.1571 25.6851L26.1571 35.1879L28.7171 35.1879L28.7171 19.3928C28.7171 18.3978 28.5249 17.4442 28.2246 16.5694L36.5227 21.346L37.7953 19.1039L27.2637 13.0301C25.5094 12.0164 23.683 11.0894 21.8326 10.3306L21.4555 10.2029L29.6112 5.49021L28.3239 3.23612L17.9815 9.21269C16.0886 10.3063 14.1811 11.5881 12.5045 12.934L12.5045 3.43387L9.94188 3.43387L9.9246 19.253C9.9246 20.2359 10.1048 21.1896 10.4051 22.0644L2.11902 17.2758L0.829083 19.5126L11.342 25.5864C12.9606 26.5069 14.6634 27.3768 16.3688 28.0664L17.1888 28.4309L9.02782 33.1582ZM19.3148 26.1399C15.5546 26.1399 12.4992 23.0871 12.4992 19.3268C12.4992 15.5666 15.5546 12.4992 19.3148 12.4992C23.0751 12.4992 26.1399 15.5666 26.1399 19.3268C26.1399 23.0871 23.0751 26.1399 19.3148 26.1399ZM19.3148 38.6417C29.9815 38.6417 38.6417 29.9909 38.6417 19.3268C38.6417 8.66015 29.9815 0 19.3148 0C8.64814 0 0 8.66015 0 19.3268C0 29.9909 8.64814 38.6417 19.3148 38.6417ZM19.3148 35.3027C10.4824 35.3027 3.33894 28.1593 3.33894 19.3268C3.33894 10.4944 10.4824 3.34832 19.3148 3.34832C28.1473 3.34832 35.2907 10.4944 35.2907 19.3268C35.2907 28.1593 28.1473 35.3027 19.3148 35.3027Z" fill="white" fill-opacity="0.85"/>
 </g>
</svg>
